<?xml version="1.0" standalone="no"?>
<!DOCTYPE svg PUBLIC "-//W3C//DTD SVG 1.1//EN" "http://www.w3.org/Graphics/SVG/1.1/DTD/svg11.dtd" >
<svg xmlns="http://www.w3.org/2000/svg">
<metadata>
Created by FontPrep 20130207 at Sat Mar  7 23:23:28 2015
 By Sergey Khabaroff
Copyright 2002 Adobe Systems Incorporated. All rights reserved.
</metadata>
<defs>
<font id="6ba5957627050afe9da5c26e362e77b5" horiz-adv-x='1024' >
  <font-face 
    font-family="BalticaC"
    font-weight="400"
    font-stretch="normal"
    units-per-em="2048"
    panose-1="4 0 5 0 0 0 0 0 0 0"
    ascent="1475"
    descent="-573"
    x-height="946"
    cap-height="1370"
    bbox="-117 -573 2374 1733"
    underline-thickness="102"
    underline-position="-102"
    unicode-range="U+0020-2122"
  />
<missing-glyph horiz-adv-x="477" 
 />
    <glyph glyph-name=".notdef" horiz-adv-x="477" 
 />
    <glyph glyph-name=".null" horiz-adv-x="0" 
 />
    <glyph glyph-name="nonmarkingreturn" horiz-adv-x="681" 
 />
    <glyph glyph-name="space" unicode=" " horiz-adv-x="477" 
 />
    <glyph glyph-name="space" unicode="&#xa0;" horiz-adv-x="477" 
 />
    <glyph glyph-name="exclam" unicode="!" horiz-adv-x="716" 
d="M359 -23q-45 0 -73 35t-28 88t26 91t74 38q48 1 74 -35q27 -36 27 -90t-27 -91q-27 -36 -73 -36zM455 1405l-54 -1032h-86l-53 1032h193z" />
    <glyph glyph-name="quotedbl" unicode="&#x22;" horiz-adv-x="856" 
d="M707 1462l-60 -452h-78l-59 452h197zM344 1462l-57 -452h-80l-57 452h194z" />
    <glyph glyph-name="numbersign" unicode="#" horiz-adv-x="2154" 
d="M971 782l-66 -309h312l65 309h-311zM477 903h397l87 397h120l-86 -397h312l86 400h118l-84 -400h396l-27 -121h-395l-66 -309h396l-25 -121h-395l-86 -397h-119l84 397h-311l-84 -397h-121l84 397h-398l25 121h399l66 309h-399z" />
    <glyph glyph-name="dollar" unicode="$" horiz-adv-x="1163" 
d="M508 831v472q-121 -8 -184 -75q-64 -67 -64 -153q0 -85 56 -135t192 -109zM913 324q0 104 -76 168q-77 63 -241 112v-543q72 1 138 21t122 78q57 60 57 164zM905 1370h94v-336h-94l-4 49q-6 82 -103 154t-202 66v-506q323 -115 403 -200t78 -216q0 -164 -121 -284
t-360 -122v-221h-88v226q-178 18 -297 112l-18 43h-11l11 -43v-92h-95v362h95l4 -63q6 -97 99 -161t212 -72v571q-213 84 -302 167q-89 82 -89 230t105 250t286 105v172h88v-172q72 -2 154 -34t139 -79l12 -29h12l-8 35v88z" />
    <glyph glyph-name="percent" unicode="%" horiz-adv-x="1576" 
d="M973 152q0 -217 124 -255q54 -19 90 -7q37 12 69 36q74 53 73 211q0 158 -54 218q-54 61 -123 61t-124 -56t-55 -208zM827 146q0 136 82 246q81 110 233 110t242 -102t90 -240q0 -139 -81 -249q-82 -110 -237 -110t-242 104t-87 241zM1208 1393l66 -33l-914 -1612l-63 37
zM426 1249q-178 0 -178 -280q0 -127 54 -187t123 -61q69 0 124 56t55 208q0 264 -178 264zM430 635q-146 1 -238 103q-90 102 -90 240t82 248t242 109q88 0 155 -36t101 -92q65 -106 67 -234q1 -127 -86 -233t-233 -105z" />
    <glyph glyph-name="ampersand" unicode="&#x26;" horiz-adv-x="1433" 
d="M240 416q0 -152 114 -245t268 -93t277 102l-412 545q-137 -73 -192 -145t-55 -164zM596 1309q-82 0 -122 -48t-40 -118t71 -172q24 -33 77 -103q68 37 120 104q52 68 52 144t-38 134t-120 59zM70 358q0 260 370 433q-59 81 -82 115t-47 92q-25 58 -24 110q0 113 75 200
q76 87 212 87t218 -78q83 -78 82 -203q0 -188 -245 -305l387 -514q119 158 129 440h149q-10 -131 -63 -253t-91 -171t-73 -84l119 -155h174v-72h-322l-88 119q-25 -18 -73 -51q-150 -92 -318 -93q-225 0 -357 115t-132 268z" />
    <glyph glyph-name="quotesingle" unicode="'" horiz-adv-x="493" 
d="M344 1462l-57 -452h-80l-57 452h194z" />
    <glyph glyph-name="parenleft" unicode="(" horiz-adv-x="706" 
d="M403 476q0 -384 34 -573t149 -294v-55q-350 150 -350 922t350 923v-56q-115 -104 -149 -293q-34 -190 -34 -574z" />
    <glyph glyph-name="parenright" unicode=")" horiz-adv-x="706" 
d="M471 476q0 -771 -350 -922v55q115 103 149 293t33 574q1 384 -33 574t-149 293v56q350 -152 350 -923z" />
    <glyph glyph-name="asterisk" unicode="*" horiz-adv-x="679" 
d="M338 981l-166 -121l64 195l-166 121h204l64 194l63 -194h205l-166 -121l64 -195z" />
    <glyph glyph-name="plus" unicode="+" horiz-adv-x="2154" 
d="M1018 1303h121v-615h612v-121h-612v-612h-121v612h-615v121h615v615z" />
    <glyph glyph-name="comma" unicode="," horiz-adv-x="538" 
d="M174 -264v506h184l-116 -506h-68z" />
    <glyph glyph-name="hyphen" unicode="-" horiz-adv-x="720" 
d="M119 598h483v-145h-483v145z" />
    <glyph glyph-name="hyphen" unicode="&#xad;" horiz-adv-x="720" 
d="M119 598h483v-145h-483v145z" />
    <glyph glyph-name="period" unicode="." horiz-adv-x="540" 
d="M271 -23q-45 0 -73 35t-28 88t26 91t74 38q48 1 74 -35q27 -36 27 -90t-27 -91q-27 -36 -73 -36z" />
    <glyph glyph-name="slash" unicode="/" 
d="M862 1427h144l-791 -1484h-143z" />
    <glyph glyph-name="zero" unicode="0" horiz-adv-x="1079" 
d="M264 706q0 -298 46 -436t123 -181q46 -26 112 -26t117 40q50 39 78 99q68 148 69 463q0 314 -44 442t-121 173q-46 27 -120 27t-132 -56q-128 -121 -128 -545zM70 682q0 177 45 314q45 136 95 214t135 130t198 52t203 -54t136 -131q118 -192 121 -516q3 -398 -201 -603
q-110 -111 -264 -111t-265 111q-203 205 -203 594z" />
    <glyph glyph-name="one" unicode="1" horiz-adv-x="1081" 
d="M655 1370v-1298h170v-72h-518v72h170v1114l-149 -156l-56 53l281 287h102z" />
    <glyph glyph-name="two" unicode="2" horiz-adv-x="1079" 
d="M993 293v-293h-891l367 414q88 100 145 176q58 76 112 196t54 239q0 120 -70 201q-71 81 -182 81q-217 0 -247 -314h-195q-4 172 122 286t326 114q200 -1 321 -105q120 -104 120 -274t-144 -348q-64 -79 -163 -178t-133 -136l-199 -209h563v150h94z" />
    <glyph glyph-name="three" unicode="3" 
d="M770 1067q0 102 -65 171q-67 69 -171 69q-104 1 -161 -51t-72 -187h-172q4 117 88 215q43 49 125 79t193 30q190 0 299 -90q108 -89 108 -217t-54 -206t-167 -126l-59 -11v-12l59 -2q123 -21 199 -119t75 -217q0 -174 -127 -295q-128 -121 -318 -121q-190 1 -326 93
t-136 239h195q7 -102 75 -174t183 -72t187 83t71 239q0 301 -332 295v86q129 -2 216 72t87 229z" />
    <glyph glyph-name="four" unicode="4" horiz-adv-x="1079" 
d="M662 434v674l-437 -674h437zM821 1370v-936h185v-104h-185v-258h170v-72h-499v72h170v258h-592l678 1040h73z" />
    <glyph glyph-name="five" unicode="5" horiz-adv-x="1075" 
d="M561 911q170 -1 305 -113t135 -324t-144 -354t-374 -143q-175 1 -289 99t-120 241h145q4 -109 76 -181q73 -72 197 -73t220 103t95 307q0 158 -89 253q-88 95 -236 95t-263 -59l172 608h592l-35 -108h-491l-121 -400q123 49 225 49z" />
    <glyph glyph-name="six" unicode="6" 
d="M272 434q0 -186 80 -278t193 -92t193 90q80 92 79 280q0 287 -188 360q-41 15 -82 15q-109 -1 -192 -95t-83 -280zM541 1307q-295 0 -291 -574l-4 -43h12l21 43q33 80 120 121q88 41 193 41q158 0 284 -100t125 -273q1 -227 -125 -386t-341 -159q-169 0 -304 125
q-70 66 -110 194q-41 128 -41 304q0 336 92 526q127 266 410 267q130 -1 230 -59t116 -173h-166q-14 76 -76 111t-145 35z" />
    <glyph glyph-name="seven" unicode="7" 
d="M918 721v-84h-207l-228 -637h-176l252 637h-180v84h213l221 541h-618v-170h-93v278h873l-234 -649h177z" />
    <glyph glyph-name="eight" unicode="8" 
d="M539 760q109 0 181 81t73 218q0 74 -28 126q-46 86 -152 111q-77 20 -132 5t-98 -39t-71 -77q-28 -52 -27 -126q1 -137 73 -218t181 -81zM272 364q0 -156 82 -228t186 -73q103 0 184 75t81 221q0 147 -69 241q-68 94 -192 94t-198 -87t-74 -243zM989 350
q0 -156 -125 -264q-124 -108 -326 -109q-202 0 -326 109t-124 262t78 259t227 122v12q-125 15 -197 113t-71 218q0 120 102 220q101 100 311 100t312 -98q102 -100 102 -220t-72 -219t-196 -114v-12q137 -8 221 -116q84 -107 84 -263z" />
    <glyph glyph-name="nine" unicode="9" 
d="M534 561q108 -1 192 93q83 94 83 279t-83 279t-182 94t-180 -66q-44 -36 -72 -115t-28 -189q0 -197 81 -286t189 -89zM538 63q177 0 239 179q52 149 52 397l5 43h-13l-18 -43q-35 -84 -122 -124t-171 -40q-150 0 -280 79q-67 40 -108 117q-42 77 -42 179q0 225 125 384
t340 159q127 1 221 -57t142 -153q95 -188 94 -415t-51 -401t-166 -282t-269 -108q-154 -1 -252 59t-110 175h163q15 -72 73 -110t148 -38z" />
    <glyph glyph-name="colon" unicode=":" horiz-adv-x="540" 
d="M269 717q-47 0 -73 38t-26 91t28 88t74 35t72 -36q27 -36 27 -90t-27 -90t-75 -36zM271 -23q-45 0 -73 35t-28 88t26 91t74 38q48 1 74 -35q27 -36 27 -90t-27 -91q-27 -36 -73 -36z" />
    <glyph glyph-name="semicolon" unicode=";" horiz-adv-x="540" 
d="M271 717q-49 0 -75 36t-26 90t27 90t73 36t73 -35q28 -35 28 -88t-26 -91t-74 -38zM170 -264v506h184l-116 -506h-68z" />
    <glyph glyph-name="less" unicode="&#x3c;" horiz-adv-x="1581" 
d="M123 647l1261 537l33 -84l-1028 -453l1028 -450l-33 -86z" />
    <glyph glyph-name="equal" unicode="=" horiz-adv-x="2154" 
d="M403 932h1348v-121h-1348v121zM403 438v121h1348v-121h-1348z" />
    <glyph glyph-name="greater" unicode="&#x3e;" horiz-adv-x="1581" 
d="M1458 647l-1261 -536l-33 86l1028 450l-1028 453l33 84z" />
    <glyph glyph-name="question" unicode="?" horiz-adv-x="1132" 
d="M442 102q0 127 99 127q47 -1 75 -35t27 -90q0 -56 -27 -91q-26 -36 -72 -36t-74 35t-28 90zM567 338q-87 0 -153 66t-66 160q0 92 39 160t95 120q56 51 113 100q134 117 134 238q0 61 -47 101t-122 40t-125 -43t-54 -115h-133q2 106 80 175t228 69t230 -66
q78 -67 78 -155t-42 -170t-100 -140t-118 -114q-144 -134 -143 -262q-1 -35 23 -60t51 -24q73 0 149 102l92 -65q-41 -53 -98 -85t-111 -32z" />
    <glyph glyph-name="at" unicode="@" horiz-adv-x="2009" 
d="M1087 995q-123 1 -223 -149t-121 -369q-6 -59 0 -117q25 -180 169 -180t235 127l139 492q-14 88 -70 142t-129 54zM1327 276q0 -58 33 -89q32 -29 74 -29t107 34t129 96q64 64 109 176q44 112 44 245q0 329 -236 529q-235 200 -583 200t-582 -256t-236 -600
q0 -215 98 -411t293 -325q194 -129 437 -129q342 0 553 189l45 -58q-270 -203 -592 -202q-268 0 -480 141t-319 353q-106 212 -106 444q0 166 60 328t169 297q109 134 282 217t378 83q378 0 634 -222t256 -578q0 -152 -53 -290q-53 -137 -168 -235t-271 -98t-239 129
q-137 -109 -281 -109t-240 100q-97 100 -97 288q0 231 158 399q159 168 389 168q152 0 241 -133l33 96h170l-170 -563q-39 -127 -39 -185z" />
    <glyph glyph-name="A" unicode="A" horiz-adv-x="1468" 
d="M983 498l-287 641l-8 53h-12l-8 -53l-271 -641h586zM408 72v-72h-424v72h147l553 1321h82l600 -1321h143v-72h-516v72h185l-160 338h-656l-137 -338h183z" />
    <glyph glyph-name="B" unicode="B" horiz-adv-x="1325" 
d="M440 772h236q119 0 201 74q81 74 81 181t-69 182q-70 75 -211 75h-238v-512zM440 86h283q129 0 217 77t88 209t-95 224q-95 90 -278 90h-215v-600zM92 1298v72h660q176 0 284 -89t107 -212q0 -123 -94 -223t-220 -101h-30v-12q113 -4 195 -39q81 -34 125 -74t74 -108
t30 -154q0 -156 -123 -257t-346 -101h-662v72h170v1226h-170z" />
    <glyph glyph-name="C" unicode="C" horiz-adv-x="1570" 
d="M1409 1370v-379h-106q-2 139 -110 227t-292 89q-264 0 -424 -170q-160 -171 -160 -443t165 -450t425 -178q299 0 502 184l59 -49q-199 -221 -563 -221q-193 0 -347 58t-246 158q-191 206 -191 484q0 322 220 518t558 195q246 0 385 -140l14 -36h11l-6 36v117h106z" />
    <glyph glyph-name="D" unicode="D" horiz-adv-x="1544" 
d="M440 1284v-1198h215q279 0 438 171t158 421q0 187 -88 334q-99 169 -282 235q-102 37 -226 37h-215zM92 1370h565q177 0 317 -45t226 -115t143 -162q103 -167 103 -358q0 -294 -202 -492t-587 -198h-565v72h170v1226h-170v72z" />
    <glyph glyph-name="E" unicode="E" horiz-adv-x="1298" 
d="M92 1370h1055v-244h-100v136h-607v-490h506v162h101v-393h-101v145h-506v-577h643v186h101v-295h-1092v72h170v1226h-170v72z" />
    <glyph glyph-name="F" unicode="F" horiz-adv-x="1245" 
d="M92 1372h1079v-260h-102v152h-629v-494h518v162h105v-406h-105v158h-518v-612h170v-72h-518v72h170v1228h-170v72z" />
    <glyph glyph-name="G" unicode="G" horiz-adv-x="1624" 
d="M1358 1370h100v-375h-102q10 133 -142 223t-359 89q-207 0 -369 -145q-81 -74 -129 -198t-48 -287q1 -163 55 -288t143 -193q175 -134 392 -135q123 1 241 49t183 128v292h-223v80h391l2 -612h-51l-72 127q-39 -31 -86 -55q-174 -94 -412 -94t-416 102q-177 104 -259 264
t-82 344q-1 184 67 324q119 246 418 342q127 41 257 41t267 -45t211 -119l17 -41h12l-6 41v141z" />
    <glyph glyph-name="H" unicode="H" horiz-adv-x="1677" 
d="M440 684v-612h170v-72h-518v72h170v1226h-170v72h518v-72h-170v-528h820v528h-170v72h518v-72h-170v-1226h170v-72h-518v72h170v612h-820z" />
    <glyph glyph-name="I" unicode="I" horiz-adv-x="679" 
d="M262 72v1226h-170v72h518v-72h-170v-1226h170v-72h-518v72h170z" />
    <glyph glyph-name="J" unicode="J" horiz-adv-x="948" 
d="M356 1370h535v-72h-170v-911q0 -215 -94 -314q-39 -40 -114 -69t-168 -29t-150 13q-115 27 -176 109q-60 83 -64 196h170q4 -80 36 -132q60 -100 174 -100q113 0 166 77q42 66 42 251v909h-187v72z" />
    <glyph glyph-name="K" unicode="K" horiz-adv-x="1538" 
d="M92 0v72h170v1226h-170v72h518v-72h-170v-700l670 700h-174v72h438v-72h-170l-430 -460l559 -766h164v-72h-530v72h163l-468 645l-222 -236v-409h170v-72h-518z" />
    <glyph glyph-name="L" unicode="L" horiz-adv-x="1165" 
d="M92 1298v72h535v-72h-187v-1189h584v184h113v-293h-1045v72h170v1226h-170z" />
    <glyph glyph-name="M" unicode="M" horiz-adv-x="2039" 
d="M1970 1370v-72h-170v-1226h170v-72h-518v72h170v1095l4 54h-10l-19 -54l-587 -1081h-62l-577 1081l-19 54h-10l6 -54v-1095h170v-72h-426v72h170v1226h-170v72h348l578 -1079l4 -37h12l4 37l584 1079h348z" />
    <glyph glyph-name="N" unicode="N" horiz-adv-x="1708" 
d="M92 1370h322l942 -1034l18 -41h10l-6 43v960h-170v72h430v-72h-170v-1321h-10l-1079 1174l-29 55h-12l14 -57v-1077h170v-72h-430v72h170v1226h-170v72z" />
    <glyph glyph-name="O" unicode="O" horiz-adv-x="1710" 
d="M309 686q0 -274 159 -448q160 -174 398 -174t398 174t159 448q0 274 -159 448q-160 173 -399 173q-239 1 -397 -173t-159 -448zM846 1393q320 0 503 -155q269 -228 269 -564q0 -104 -45 -224t-132 -228t-239 -176t-339 -69q-187 0 -337 68q-150 67 -236 175
q-176 221 -175 467q0 246 176 465q85 108 235 174t320 67z" />
    <glyph glyph-name="P" unicode="P" horiz-adv-x="1239" 
d="M440 1284v-633q74 -25 184 -25q204 1 282 123q67 100 68 228q1 127 -91 217t-238 90h-205zM440 72h185v-72h-533v72h170v1228h-170v70h627q205 0 328 -104t123 -271t-113 -305q-57 -70 -161 -110q-208 -79 -456 -9v-499z" />
    <glyph glyph-name="Q" unicode="Q" horiz-adv-x="1767" 
d="M1446 686q0 274 -163 448t-401 173q-238 0 -400 -173q-160 -173 -160 -452t156 -449t382 -170q115 0 205 33l-139 142l123 81l149 -155q248 193 248 522zM879 -23q-328 0 -540 206t-212 503q0 252 175 465q87 106 238 174t340 68t342 -68q152 -67 240 -175
q178 -218 178 -464q0 -164 -89 -334t-267 -276l184 -195l-147 -53l-184 188q-125 -39 -258 -39z" />
    <glyph glyph-name="R" unicode="R" horiz-adv-x="1359" 
d="M440 1284v-592h203q145 0 231 93t86 215t-88 203q-90 81 -233 81h-199zM92 1370h613q336 0 422 -243q22 -58 22 -117q0 -133 -89 -242t-261 -117l-29 -2v-10l45 -8q23 -10 39 -23t83 -122q67 -110 144 -222q78 -112 127 -153t125 -41q27 0 39 2v-72q-46 -23 -144 -23
q-98 1 -157 55t-216 288t-179 260q-23 27 -68 26h-168v-534h170v-72h-518v72h170v1226h-170v72z" />
    <glyph glyph-name="S" unicode="S" horiz-adv-x="1161" 
d="M915 1370h97v-336h-94l-7 51q-35 221 -288 222q-160 0 -256 -66q-97 -66 -97 -154t57 -142q57 -53 116 -80q59 -26 87 -38t87 -32q57 -20 107 -39t88 -34t99 -51t93 -71q84 -91 83 -219q0 -182 -140 -295q-139 -113 -365 -113t-359 119l-20 43h-10l10 -45v-90h-94v362h94
l4 -67q6 -84 96 -160t277 -76t287 104q56 58 57 146t-51 160q-17 25 -67 53t-76 37t-72 27t-110 43q-62 25 -80 31t-70 30q-52 23 -68 33t-56 34t-52 40q-13 16 -38 44t-41 82t-16 103q0 172 130 269t312 98q113 0 179 -23t145 -88l18 -35h13l-9 43v80z" />
    <glyph glyph-name="T" unicode="T" horiz-adv-x="1306" 
d="M924 0h-518v72h169v1190h-421v-189h-103v297h1227v-297h-102v189h-422v-1190h170v-72z" />
    <glyph glyph-name="U" unicode="U" horiz-adv-x="1572" 
d="M80 1370h534v-72h-186v-786q0 -172 55 -264q27 -45 69 -90q89 -95 284 -95q114 0 198 39q84 38 126 92t66 135t28 137q5 56 6 130v702h-187v72h443v-72h-170v-819q0 -217 -138 -359t-379 -143q-151 0 -263 38q-112 39 -171 93t-94 135t-43 144t-8 141v770h-170v72z" />
    <glyph glyph-name="V" unicode="V" horiz-adv-x="1509" 
d="M-16 1370h616v-72h-219l424 -1036l6 -63h18l7 63l419 1036h-217v72h512v-72h-194l-525 -1298h-122l-539 1298h-186v72z" />
    <glyph glyph-name="W" unicode="W" horiz-adv-x="2148" 
d="M-16 1370h530v-72h-192l366 -1038l4 -61h10l9 61l383 1110h84l372 -1114l9 -57h12l8 61l360 1038h-190v72h440v-72h-153l-461 -1298h-115l-350 1040l-10 62h-13l-10 -62l-362 -1040h-111l-463 1298h-157v72z" />
    <glyph glyph-name="X" unicode="X" horiz-adv-x="1566" 
d="M971 1298v72h450v-72h-153l-416 -532l528 -694h146v-72h-555v72h194l-399 534l-14 27h-9l-16 -27l-397 -534h186v-72h-453v72h160l461 620l-473 606h-148v72h549v-72h-178l344 -450l10 -27h11l8 27l350 450h-186z" />
    <glyph glyph-name="Y" unicode="Y" horiz-adv-x="1306" 
d="M-16 1370h544v-72h-186l348 -632l10 -43h11l12 43l364 632h-186v72h447v-72h-154l-442 -759v-467h170v-72h-519v72h170v446l-440 780h-149v72z" />
    <glyph glyph-name="Z" unicode="Z" horiz-adv-x="1290" 
d="M113 1372h1106l-873 -1263h801v149h102v-258h-1186l879 1264h-723v-164h-106v272z" />
    <glyph glyph-name="bracketleft" unicode="[" horiz-adv-x="747" 
d="M258 -446v1845h346v-94h-170v-1655h170v-96h-346z" />
    <glyph glyph-name="backslash" unicode="\" 
d="M215 1427l791 -1484h-144l-790 1484h143z" />
    <glyph glyph-name="bracketright" unicode="]" horiz-adv-x="747" 
d="M489 -446h-346v96h168v1655h-168v94h346v-1845z" />
    <glyph glyph-name="asciicircum" unicode="^" 
d="M539 1599l-310 -122v71l269 172h82l268 -172v-71z" />
    <glyph glyph-name="underscore" unicode="_" horiz-adv-x="1484" 
d="M57 -430v143h1370v-143h-1370z" />
    <glyph glyph-name="grave" unicode="`" horiz-adv-x="493" 
d="M248 1434l110 -293h-75l-281 293h246z" />
    <glyph glyph-name="a" unicode="a" horiz-adv-x="1050" 
d="M486 549q-96 0 -173 -70t-77 -180t73 -173q74 -62 155 -62q80 0 148 39q68 40 99 116v166q-63 164 -225 164zM862 72h160v-72h-311v86q-49 -51 -131 -80t-162 -29q-162 1 -255 97t-93 225t99 232t274 103t268 -116v148q1 127 -63 180t-152 53q-150 0 -267 -104l-57 79
q131 94 320 95q106 0 179 -27q73 -26 109 -62t56 -105t23 -118t3 -139v-446z" />
    <glyph glyph-name="b" unicode="b" horiz-adv-x="1169" 
d="M334 567v-188q0 -147 76 -231t186 -82q110 0 197 76q47 42 75 127q29 85 29 204t-29 204q-68 200 -272 204q-110 1 -186 -83t-76 -231zM16 1366h318v-506l-8 -57l12 -4q47 113 159 146q80 24 140 24q199 0 319 -134q120 -133 121 -357q0 -224 -124 -362
q-125 -138 -335 -138t-307 167l-86 -145h-53v1303h-156v63z" />
    <glyph glyph-name="c" unicode="c" horiz-adv-x="1042" 
d="M905 946v-272h-92q-2 100 -79 155t-178 55t-184 -81q-44 -43 -72 -128t-28 -202q0 -191 90 -297t216 -106q186 0 323 112l55 -71q-174 -133 -384 -133t-344 142q-136 142 -136 352t129 353t328 144q141 0 248 -80l14 -33l10 4l-8 33v53h92z" />
    <glyph glyph-name="d" unicode="d" horiz-adv-x="1222" 
d="M836 379v188q0 147 -76 231t-197 83q-121 1 -206 -101t-85 -307t85 -306t206 -101t197 83t76 230zM997 1374v-1302h156v-72h-317v94l8 51l-10 5q-70 -172 -302 -173q-192 -1 -316 137t-124 361t124 359t316 135q236 0 302 -170l10 4l-8 51v449h-156v71h317z" />
    <glyph glyph-name="e" unicode="e" horiz-adv-x="1079" 
d="M813 518q0 178 -78 282q-79 104 -199 105q-120 -1 -197 -113t-71 -274h545zM268 453q0 -112 50 -236q30 -72 102 -117t176 -45q190 0 344 154l53 -55q-69 -82 -183 -129t-226 -48q-201 0 -350 127q-148 127 -148 368t138 369t320 128t317 -122q67 -61 103 -163t29 -231
h-725z" />
    <glyph glyph-name="f" unicode="f" horiz-adv-x="663" 
d="M70 946h155v154q0 139 78 214q77 75 187 75t202 -93l-84 -88q-53 115 -123 115q-98 0 -98 -178v-199h215v-72h-215v-802h156v-72h-473v72h155v802h-155v72z" />
    <glyph glyph-name="g" unicode="g" horiz-adv-x="1208" 
d="M836 385v188q0 150 -76 231t-199 81t-206 -98q-35 -39 -59 -119t-24 -194t29 -199t77 -127q87 -76 185 -76t186 68q87 69 87 245zM995 874v-858q0 -359 -225 -450q-94 -39 -231 -39q-213 0 -357 168l105 96q117 -197 274 -197q123 0 198 80t75 246v174l10 51l-13 5
q-61 -172 -301 -173q-194 -1 -316 137t-122 361t122 359t328 135q206 0 302 -166l39 143h268v-72h-156z" />
    <glyph glyph-name="h" unicode="h" horiz-adv-x="1202" 
d="M63 1368h318v-506l-12 -61l12 -2l27 53q106 117 278 117q113 0 203 -64q49 -35 78 -107t28 -171v-555h156v-72h-473v72h156v510q0 216 -95 268q-41 23 -102 22q-256 0 -256 -323v-477h156v-72h-474v72h156v1224h-156v72z" />
    <glyph glyph-name="i" unicode="i" horiz-adv-x="600" 
d="M205 1260q0 40 31 70q30 30 70 30t70 -31t30 -69t-27 -69q-27 -32 -73 -32t-74 31q-27 31 -27 70zM70 946h317v-874h156v-72h-473v72h155v802h-155v72z" />
    <glyph glyph-name="j" unicode="j" horiz-adv-x="593" 
d="M321 1358q45 0 73 -29t28 -73t-31 -72t-69 -27q-38 -1 -70 29q-31 30 -31 70t28 71t72 31zM55 946h346v-1046q0 -225 -97 -313q-79 -72 -179 -72q-141 0 -211 92l92 69q41 -94 115 -94q119 0 119 232v1060h-185v72z" />
    <glyph glyph-name="k" unicode="k" horiz-adv-x="1206" 
d="M381 1374v-899l395 399h-178v72h459v-72h-160l-289 -290l416 -512h154v-72h-523v72h158l-317 397l-115 -113v-284h156v-72h-474v72h156v1231h-156v71h318z" />
    <glyph glyph-name="l" unicode="l" horiz-adv-x="612" 
d="M387 1374v-1302h156v-72h-473v72h155v1231h-155v71h317z" />
    <glyph glyph-name="m" unicode="m" horiz-adv-x="1757" 
d="M526 0h-456v72h155v802h-155v72h315v-92l-10 -53l10 -2q68 170 291 170q197 0 266 -170l2 -25h12l2 25q82 170 291 170q301 0 301 -307v-590h156v-72h-457v72h140v534q1 118 -21 171t-61 73t-103 20q-98 0 -167 -70t-68 -245v-483h139v-72h-440v72h139v534q0 143 -45 203
q-45 61 -150 61q-225 0 -225 -315v-483h139v-72z" />
    <glyph glyph-name="n" unicode="n" horiz-adv-x="1208" 
d="M690 969q311 0 311 -342v-555h156v-72h-473v72h156v510q0 145 -25 189q-36 71 -89 89q-36 12 -83 12q-256 0 -256 -323v-477h156v-72h-473v72h155v802h-155v72h317v-98l-12 -47l12 -2q31 84 119 127t184 43z" />
    <glyph glyph-name="o" unicode="o" horiz-adv-x="1153" 
d="M266 473q0 -250 104 -345q88 -81 217 -82t216 106q35 43 59 126q25 84 25 196t-25 195t-59 126q-35 43 -93 75t-125 31q-126 0 -215 -83q-104 -95 -104 -345zM86 473q0 205 134 350t353 145t357 -146t137 -349q0 -203 -137 -349q-136 -146 -356 -146t-354 144
q-134 146 -134 351z" />
    <glyph glyph-name="p" unicode="p" horiz-adv-x="1216" 
d="M381 567v-188q0 -133 71 -223q70 -90 196 -90t211 101t85 306t-85 306t-211 101t-196 -90t-71 -223zM381 -358h172v-72h-490v72h156v1232h-156v72h318v-69l-8 -74l10 -4q66 170 301 170q196 0 318 -135q122 -134 122 -358t-122 -361t-316 -138q-236 0 -303 173l-10 -5
l8 -51v-452z" />
    <glyph glyph-name="q" unicode="q" horiz-adv-x="1222" 
d="M836 379v188q0 147 -76 231t-186 83q-110 0 -197 -77q-47 -42 -76 -127t-29 -204t29 -204t76 -127q85 -76 196 -76t187 83t76 230zM1153 948v-71h-156v-1235h156v-72h-489v72h172v452l8 51l-13 5q-61 -172 -301 -173q-194 -1 -316 137t-122 362t121 358t319 135
q240 -1 312 -185l49 164h260z" />
    <glyph glyph-name="r" unicode="r" horiz-adv-x="772" 
d="M70 946h317v-149h10q72 172 221 172q102 0 154 -68l-82 -131q-51 76 -126 76t-126 -82t-51 -191v-501h156v-72h-473v72h155v802h-155v72z" />
    <glyph glyph-name="s" unicode="s" horiz-adv-x="878" 
d="M745 694h-88q6 98 -67 151q-74 52 -168 52t-142 -51t-48 -102t14 -69q14 -19 22 -29t26 -20t32 -16q12 -6 38 -13t38 -11t74 -20q123 -31 216 -86q117 -70 117 -208q0 -139 -86 -217t-231 -78q-96 1 -156 21t-133 84l-15 29l-10 -5l6 -26v-80h-92v289h92q-4 -111 82 -175
t193 -65q107 0 157 51q50 50 52 108q0 58 -36 94t-77 52t-174 55q-134 40 -157 59t-51 42q-66 54 -67 180q-2 125 85 202t211 77t239 -82l12 -31l13 4l-9 29v57h88v-252z" />
    <glyph glyph-name="t" unicode="t" horiz-adv-x="700" 
d="M381 946h219v-72h-219v-663q0 -78 16 -122t74 -44q72 0 119 113l82 -68q-58 -70 -108 -92t-120 -21q-187 0 -220 171q-5 32 -5 79v647h-156v72h156v236l162 114v-350z" />
    <glyph glyph-name="u" unicode="u" horiz-adv-x="1216" 
d="M57 946h318v-635q0 -250 209 -250q106 0 176 68t69 205v540h-155v72h317v-874h156v-72h-318v76l11 47h-13l-24 -45q-100 -104 -279 -105q-311 0 -311 346v555h-156v72z" />
    <glyph glyph-name="v" unicode="v" horiz-adv-x="1054" 
d="M-29 946h486v-72h-176l270 -667l6 -47h12l9 47l268 667h-176v72h413v-72h-141l-360 -874h-115l-361 874h-135v72z" />
    <glyph glyph-name="w" unicode="w" horiz-adv-x="1513" 
d="M-29 946h478v-72h-168l215 -618l6 -49h10l6 49l240 690h61l242 -690l4 -49h12l4 49l226 618h-187v72h422v-72h-135l-322 -874h-90l-227 623l-4 45h-12l-4 -45l-226 -623h-92l-321 874h-138v72z" />
    <glyph glyph-name="x" unicode="x" horiz-adv-x="1136" 
d="M469 72v-72h-440v72h155l299 395l-299 407h-155v72h471v-72h-127l207 -280l213 280h-150v72h418v-72h-158l-268 -354l328 -448h145v-72h-483v72h149l-235 321l-244 -321h174z" />
    <glyph glyph-name="y" unicode="y" horiz-adv-x="1120" 
d="M709 874v72h440v-72h-160l-422 -1040q-72 -176 -112 -231q-68 -90 -161 -90t-159 63l74 158q35 -74 86 -74q94 0 135 94l102 246l-389 874h-143v72h485v-72h-184l295 -657l12 -47h10l9 47l270 657h-188z" />
    <glyph glyph-name="z" unicode="z" horiz-adv-x="948" 
d="M88 946h803l-600 -874h483v211h111v-283h-828l600 874h-456v-212h-113v284z" />
    <glyph glyph-name="braceleft" unicode="{" horiz-adv-x="1079" 
d="M698 1042q0 -147 -59 -240t-190 -153v-16q131 -59 190 -153t59 -240q0 -63 -6 -125l-6 -115q0 -168 152 -207v-115q-338 14 -338 365l8 233q0 158 -58 223q-59 64 -135 70v144q193 16 193 293l-8 233q0 209 111 290q94 69 227 75v-115q-152 -39 -152 -207l6 -115
q6 -61 6 -125z" />
    <glyph glyph-name="bar" unicode="|" horiz-adv-x="487" 
d="M172 1733h143v-2220h-143v2220z" />
    <glyph glyph-name="braceright" unicode="}" horiz-adv-x="1079" 
d="M393 0l-12 240q0 150 58 242t192 151v16q-133 59 -191 151t-59 242l12 240q0 170 -151 207v115q125 -4 224 -75q52 -38 83 -113t31 -177l-9 -233q1 -158 59 -222t134 -71v-144q-82 -5 -137 -77t-56 -216l9 -233q0 -165 -81 -258q-34 -39 -101 -71t-156 -36v115
q152 37 151 207z" />
    <glyph glyph-name="asciitilde" unicode="~" horiz-adv-x="1079" 
d="M824 686q85 0 145 64l43 -29q-56 -117 -129 -139q-73 -21 -105 -21h-37q-29 0 -110 19q-225 43 -371 47q-88 0 -137 -70l-55 37q64 114 146 137q105 31 215 11q48 -8 115 -22t131 -24t149 -10z" />
    <glyph glyph-name="currency" unicode="&#xa4;" horiz-adv-x="1318" 
d="M659 215q109 0 213 51t181 162q76 111 75 258q0 147 -75 258q-77 111 -181 162t-213 51q-172 0 -319 -127t-147 -334t137 -344t329 -137zM1249 687q0 -210 -129 -376l140 -141l-84 -84l-142 141q-170 -133 -374 -133t-369 133l-146 -143l-86 86l146 141
q-133 164 -133 376t133 372l-146 141l86 86l144 -143q163 131 373 131t372 -129l142 141l84 -86l-140 -141q129 -162 129 -372z" />
    <glyph glyph-name="section" unicode="&#xa7;" 
d="M670 684l-215 199q-180 -131 -181 -297q0 -33 33 -88t66 -84l223 -195q184 102 184 285q1 78 -110 180zM538 1307q-66 0 -104 -29t-39 -78q0 -83 142 -198t210 -177q68 -61 103 -114q72 -111 74 -199q0 -190 -279 -336q123 -119 123 -264q0 -88 -75 -152t-191 -63
q-116 0 -203 60q-86 60 -84 167h121q4 -141 176 -141q55 1 87 25t32 51q0 73 -50 141t-145 152q-168 145 -213 200q-88 104 -88 213t70 193t203 164q-150 141 -150 249q0 82 69 152t203 70t210 -66t73 -162h-131q4 61 -37 101t-107 41z" />
    <glyph glyph-name="copyright" unicode="&#xa9;" horiz-adv-x="1677" 
d="M258 686q0 -240 170 -410t410 -170t410 170t169 410q0 240 -170 410q-169 170 -409 170t-410 -170t-170 -410zM1094 1028v-203h-70q-2 70 -59 111t-135 41t-140 -71q-63 -71 -63 -217t59 -227t162 -81q145 0 242 76l40 -54q-116 -104 -274 -104t-268 98q-110 99 -109 277
t107 278t230 100t196 -67l10 -24l8 4l-6 24v39h70zM131 685q0 294 207 501t501 207q295 0 501 -207t206 -500t-208 -501t-500 -208t-500 207q-207 207 -207 501z" />
    <glyph glyph-name="guillemotleft" unicode="&#xab;" 
d="M541 508l235 387h135l-231 -387l231 -387h-135zM166 508l235 387h136l-232 -387l232 -387h-136z" />
    <glyph glyph-name="logicalnot" unicode="&#xac;" horiz-adv-x="2154" 
d="M403 567v121h1348v-326h-123v205h-1225z" />
    <glyph glyph-name="registered" unicode="&#xae;" horiz-adv-x="1677" 
d="M705 981v-291h90q57 0 105 37t48 101t-46 109q-46 44 -109 44h-88zM494 981v66h333q78 0 132 -24q54 -25 78 -61q42 -64 42 -121q0 -59 -43 -119t-125 -77v-6h9q6 -1 48 -67t62 -98q28 -43 43 -66q14 -23 22 -27q9 -4 22 -10t40 -8q27 -1 39 4v-64q-31 -18 -79 -18
t-82 18t-55 45t-97 147q-76 121 -95 121h-83v-254h88v-67h-299v67h86v619h-86zM260 687q0 -239 170 -409t409 -172q239 0 409 172t169 410q0 238 -169 407q-170 169 -410 169t-409 -169t-169 -408zM131 687q0 292 207 499t501 207q295 0 501 -208t206 -499t-207 -500
t-501 -209t-500 209q-207 209 -207 501z" />
    <glyph glyph-name="degree" unicode="&#xb0;" horiz-adv-x="712" 
d="M127 1135q0 93 68 161q67 68 161 68t162 -68t68 -162t-68 -161q-68 -68 -162 -68t-162 68t-67 162zM213 1130q0 -64 46 -101q46 -38 100 -38t98 43q43 44 43 98t-38 100t-102 46t-105 -42q-42 -42 -42 -106z" />
    <glyph glyph-name="plusminus" unicode="&#xb1;" horiz-adv-x="1796" 
d="M887 1268h121v-387h612v-121h-612v-287h-121v287h-615v121h615v387zM272 252v121h1348v-121h-1348z" />
    <glyph glyph-name="mu" unicode="&#xb5;" horiz-adv-x="1327" 
d="M375 946v-614q0 -116 49 -176q23 -29 69 -52t111 -22q109 0 167 74t58 198v592h162v-614q0 -213 50 -263q26 -26 79 -26t105 70l45 -45q-60 -92 -166 -92t-170 60t-74 154q-34 -102 -110 -158q-151 -112 -309 -10q-73 46 -93 128h-10v-82l70 -498h-195v1376h162z" />
    <glyph glyph-name="mu" unicode="&#x3bc;" horiz-adv-x="1327" 
d="M375 946v-614q0 -116 49 -176q23 -29 69 -52t111 -22q109 0 167 74t58 198v592h162v-614q0 -213 50 -263q26 -26 79 -26t105 70l45 -45q-60 -92 -166 -92t-170 60t-74 154q-34 -102 -110 -158q-151 -112 -309 -10q-73 46 -93 128h-10v-82l70 -498h-195v1376h162z" />
    <glyph glyph-name="paragraph" unicode="&#xb6;" horiz-adv-x="1052" 
d="M766 1376h137v-1949h-137v1949zM510 -573h-137v1433h-29q-143 0 -215 76t-72 182t72 182t215 76h166v-1949z" />
    <glyph glyph-name="periodcentered" unicode="&#xb7;" horiz-adv-x="362" 
d="M293 706q0 -54 -27 -90q-26 -36 -72 -36t-74 35t-28 88t26 91t74 38t74 -36t27 -90z" />
    <glyph glyph-name="periodcentered" unicode="&#x2219;" horiz-adv-x="362" 
d="M293 706q0 -54 -27 -90q-26 -36 -72 -36t-74 35t-28 88t26 91t74 38t74 -36t27 -90z" />
    <glyph glyph-name="guillemotright" unicode="&#xbb;" 
d="M911 508l-237 -387h-133l231 387l-231 387h133zM537 508l-236 -387h-135l231 387l-231 387h135z" />
    <glyph glyph-name="circumflex" unicode="&#x2c6;" horiz-adv-x="495" 
d="M590 1163l-49 -61q-92 45 -174 100q-82 56 -119 80q-46 -29 -102 -67q-106 -71 -191 -111l-47 59q76 51 160 130t131 155h98q41 -66 130 -154t163 -131z" />
    <glyph glyph-name="tilde" unicode="&#x2dc;" horiz-adv-x="495" 
d="M403 1276q115 0 150 86l59 -27q-33 -92 -84 -143t-110 -51q-104 0 -223 52t-172 36q-53 -17 -86 -80l-54 31q27 82 84 134t120 52t223 -66q17 -6 42 -15t51 -9z" />
    <glyph glyph-name="afii10023" unicode="&#x401;" horiz-adv-x="1286" 
d="M879 1702q45 0 75 -31t31 -75q0 -44 -32 -74q-33 -30 -75 -31q-42 1 -74 31t-32 74t31 75t76 31zM449 1702q45 0 75 -31t31 -75q0 -44 -32 -74q-33 -30 -75 -31q-42 1 -74 31t-32 74t31 75t76 31zM1149 1370v-244h-102v136h-607v-490h506v162h103v-393h-103v145h-506
v-577h641v186h103v-295h-1092v72h170v1226h-170v72h1057z" />
    <glyph glyph-name="afii10051" unicode="&#x402;" horiz-adv-x="1714" 
d="M1370 535q0 200 -370 200q-90 0 -265 -33v-702h-348v72h170v1190h-410v-189h-102v297h1215v-297h-103v189h-422v-474q201 33 357 33q156 1 244 -27q143 -44 190 -160q16 -42 16 -89v-158q0 -412 -385 -412q-193 0 -319 125l123 99q61 -137 206 -138q86 0 145 65
q58 65 58 202v207z" />
    <glyph glyph-name="afii10052" unicode="&#x403;" horiz-adv-x="1159" 
d="M911 1720v-41l-307 -147h-80l142 188h245zM92 1370h1045v-297h-111v189h-586v-1190h170v-72h-518v72h170v1226h-170v72z" />
    <glyph glyph-name="afii10053" unicode="&#x404;" horiz-adv-x="1554" 
d="M973 659h-651q-4 -247 144 -421t398 -175q307 0 494 279l98 -96q-94 -133 -257 -201t-347 -68t-328 65t-229 169q-168 208 -168 459q0 309 186 516t484 207q141 0 273 -41t212 -129l12 -35h13l-4 31v122h94v-356h-94q-15 152 -163 237t-325 85q-221 0 -359 -173
t-134 -389h651v-86z" />
    <glyph glyph-name="afii10054" unicode="&#x405;" horiz-adv-x="1161" 
d="M915 1370h97v-336h-94l-7 51q-35 221 -288 222q-160 0 -256 -66q-97 -66 -97 -154t57 -142q57 -53 116 -80q59 -26 87 -38t87 -32q57 -20 107 -39t88 -34t99 -51t93 -71q84 -91 83 -219q0 -182 -140 -295q-139 -113 -365 -113t-359 119l-20 43h-10l10 -45v-90h-94v362h94
l4 -67q6 -84 96 -160t277 -76t287 104q56 58 57 146t-51 160q-17 25 -67 53t-76 37t-72 27t-110 43q-62 25 -80 31t-70 30q-52 23 -68 33t-56 34t-52 40q-13 16 -38 44t-41 82t-16 103q0 172 130 269t312 98q113 0 179 -23t145 -88l18 -35h13l-9 43v80z" />
    <glyph glyph-name="afii10055" unicode="&#x406;" horiz-adv-x="679" 
d="M262 72v1226h-170v72h518v-72h-170v-1226h170v-72h-518v72h170z" />
    <glyph glyph-name="afii10056" unicode="&#x407;" horiz-adv-x="675" 
d="M553 1491q-43 1 -75 31t-32 74t31 75t76 31t76 -31t31 -75t-32 -74t-75 -31zM123 1491q-43 1 -75 31t-32 74t31 75t76 31t76 -31t31 -75t-32 -74t-75 -31zM250 72v1226h-170v72h516v-72h-170v-1226h170v-72h-516v72h170z" />
    <glyph glyph-name="afii10057" unicode="&#x408;" horiz-adv-x="948" 
d="M356 1370h535v-72h-170v-911q0 -215 -94 -314q-39 -40 -114 -69t-168 -29t-150 13q-115 27 -176 109q-60 83 -64 196h170q4 -80 36 -132q60 -100 174 -100q113 0 166 77q42 66 42 251v909h-187v72z" />
    <glyph glyph-name="afii10058" unicode="&#x409;" horiz-adv-x="1951" 
d="M1135 86h247q147 0 227 95q79 95 79 221t-100 205t-234 79h-219v-600zM723 1370h596v-72h-184v-526h268q229 0 354 -99t125 -263t-119 -287t-370 -123h-607v72h170v1163h-16l-532 -1018q-125 -240 -285 -240q-57 0 -111 17l76 190q53 -29 107 -28q102 0 198 182l500 960
h-170v72z" />
    <glyph glyph-name="afii10059" unicode="&#x40a;" horiz-adv-x="2213" 
d="M1397 86h248q145 0 225 99t80 227t-100 200q-100 74 -234 74h-219v-600zM1049 1370h518v-72h-170v-526h268q229 0 354 -99t125 -263t-119 -287t-370 -123h-606v72h170v612h-779v-612h170v-72h-518v72h170v1226h-170v72h518v-72h-170v-528h779v528h-170v72z" />
    <glyph glyph-name="afii10060" unicode="&#x40b;" horiz-adv-x="1787" 
d="M45 1370h1223v-297h-103v189h-430v-474q209 33 345 33q347 0 429 -126q27 -41 33 -73t6 -77v-473h170v-72h-516v72h168v453q0 13 -6 50t-18 53q-49 63 -101 78q-98 29 -220 29t-290 -33v-630h168v-72h-516v72h170v1190h-410v-189h-102v297z" />
    <glyph glyph-name="afii10061" unicode="&#x40c;" horiz-adv-x="1540" 
d="M1061 1720v-41l-307 -147h-80l141 188h246zM440 1298v-700l672 700h-176v72h440v-72h-172l-428 -460l432 -594q70 -96 117 -134t117 -38h57v-72q-61 -23 -140 -23t-145 25t-127 111l-423 604l-224 -236v-409h170v-72h-518v72h170v1226h-170v72h518v-72h-170z" />
    <glyph glyph-name="afii10062" unicode="&#x40e;" horiz-adv-x="1370" 
d="M1147 1692v-23q0 -98 -69 -139q-69 -42 -137 -50q-68 -7 -177 -7q-108 0 -154 18q-46 19 -80 39q-67 42 -67 139v23h188q-4 -16 -4 -23q0 -127 158 -127q43 0 72 5t57 36t27 86q0 14 -3 23h189zM979 1298v72h432v-72h-154l-534 -1144q-82 -176 -242 -177q-100 0 -182 64
l84 182q68 -92 149 -92q57 0 88 26q30 26 52 72l63 138l-569 931h-154v72h543v-72h-190l442 -723l6 -51h12l9 51l337 723h-192z" />
    <glyph glyph-name="afii10145" unicode="&#x40f;" horiz-adv-x="1685" 
d="M1438 72h178v-72h-676v-389h-180v389h-668v72h170v1226h-170v72h518v-72h-170v-1189h820v1189h-170v72h518v-72h-170v-1226z" />
    <glyph glyph-name="afii10017" unicode="&#x410;" horiz-adv-x="1468" 
d="M983 498l-287 641l-8 53h-12l-8 -53l-271 -641h586zM408 72v-72h-424v72h147l553 1321h82l600 -1321h143v-72h-516v72h185l-160 338h-656l-137 -338h183z" />
    <glyph glyph-name="afii10018" unicode="&#x411;" horiz-adv-x="1308" 
d="M440 82h271q129 0 223 79t94 214t-90 223t-240 88h-258v-604zM440 1262v-490h273q293 0 401 -117q109 -117 109 -267t-108 -269t-402 -119h-621v72h170v1226h-170v72h1004v-297h-103v189h-553z" />
    <glyph glyph-name="afii10019" unicode="&#x412;" horiz-adv-x="1325" 
d="M440 772h236q119 0 201 74q81 74 81 181t-69 182q-70 75 -211 75h-238v-512zM440 86h283q129 0 217 77t88 209t-95 224q-95 90 -278 90h-215v-600zM92 1298v72h660q176 0 284 -89t107 -212q0 -123 -94 -223t-220 -101h-30v-12q113 -4 195 -39q81 -34 125 -74t74 -108
t30 -154q0 -156 -123 -257t-346 -101h-662v72h170v1226h-170z" />
    <glyph glyph-name="afii10020" unicode="&#x413;" horiz-adv-x="1159" 
d="M92 1370h1045v-297h-111v189h-586v-1190h170v-72h-518v72h170v1226h-170v72z" />
    <glyph glyph-name="afii10021" unicode="&#x414;" horiz-adv-x="1470" 
d="M1124 92l-405 1094l-4 33h-10l-7 -33l-411 -1094h837zM1483 72v-461h-166v389h-1137v-389h-168v461h185l460 1226h-174v72h346l469 -1298h185z" />
    <glyph glyph-name="afii10022" unicode="&#x415;" horiz-adv-x="1298" 
d="M92 1370h1055v-244h-100v136h-607v-490h506v162h101v-393h-101v145h-506v-577h643v186h101v-295h-1092v72h170v1226h-170v72z" />
    <glyph glyph-name="afii10024" unicode="&#x416;" horiz-adv-x="2414" 
d="M2374 72v-72q-51 -25 -207 -25q-49 0 -99 28t-77 69l-461 657l-227 -235v-422h161v-72h-491v72h162v422l-228 233l-461 -655q-33 -47 -87 -72t-89 -25q-150 0 -207 25v72h56q70 0 119 39t116 133l439 602l-437 452h-170v72h439v-72h-170l680 -684v684h-162v72h491v-72
h-161v-684l679 684h-170v72h439v-72h-170l-436 -452l438 -602q41 -55 69 -87t72 -59q45 -27 94 -26h56z" />
    <glyph glyph-name="afii10025" unicode="&#x417;" horiz-adv-x="1277" 
d="M451 700v86h137q328 0 327 271q0 106 -79 178q-80 72 -222 72t-241 -67q-98 -67 -113 -177h-96v307h96v-86l-8 -35l10 -4l21 39q119 109 341 109t346 -89q124 -90 124 -226t-80 -228t-201 -96v-13q143 5 253 -109t110 -256t-113 -264q-57 -62 -166 -102t-244 -41
q-135 0 -232 26t-181 99l-21 39l-10 -4l6 -43v-86h-94v362h94q8 -101 81 -191q42 -52 128 -84t198 -32q217 0 294 118q65 98 65 224q0 127 -110 215t-283 88h-137z" />
    <glyph glyph-name="afii10026" unicode="&#x418;" horiz-adv-x="1667" 
d="M1249 1298h-170v72h518v-72h-170v-1226h170v-72h-518v72h170v997l-809 -903v-94h170v-72h-518v72h170v1226h-170v72h518v-72h-170v-1003l809 893v110z" />
    <glyph glyph-name="afii10027" unicode="&#x419;" horiz-adv-x="1667" 
d="M1184 1692v-23q0 -98 -69 -139q-69 -42 -137 -50q-68 -7 -177 -7t-155 18q-46 19 -79 39q-67 42 -67 139v23h188q-4 -18 -4 -38t9 -47q20 -63 149 -65q59 0 97 16q72 31 56 134h189zM1249 1298h-170v72h518v-72h-170v-1226h170v-72h-518v72h170v997l-809 -903v-94h170
v-72h-518v72h170v1226h-170v72h518v-72h-170v-1003l809 893v110z" />
    <glyph glyph-name="afii10028" unicode="&#x41a;" horiz-adv-x="1540" 
d="M440 1298v-700l672 700h-176v72h440v-72h-172l-428 -460l432 -594q70 -96 117 -134t117 -38h57v-72q-61 -23 -140 -23t-145 25t-127 111l-423 604l-224 -236v-409h170v-72h-518v72h170v1226h-170v72h518v-72h-170z" />
    <glyph glyph-name="afii10029" unicode="&#x41b;" horiz-adv-x="1497" 
d="M1509 72v-72h-522v72h189l-433 1120l-6 43h-10l-6 -43l-371 -1010q-47 -127 -89 -166q-41 -39 -111 -39t-138 23l64 180q44 -20 96 -20t70 10q38 21 69 123q10 33 15 45l348 960h-170v72h350l504 -1298h151z" />
    <glyph glyph-name="afii10030" unicode="&#x41c;" horiz-adv-x="2039" 
d="M1970 1370v-72h-170v-1226h170v-72h-518v72h170v1095l4 54h-10l-19 -54l-587 -1081h-62l-577 1081l-19 54h-10l6 -54v-1095h170v-72h-426v72h170v1226h-170v72h348l578 -1079l4 -37h12l4 37l584 1079h348z" />
    <glyph glyph-name="afii10031" unicode="&#x41d;" horiz-adv-x="1677" 
d="M440 684v-612h170v-72h-518v72h170v1226h-170v72h518v-72h-170v-528h820v528h-170v72h518v-72h-170v-1226h170v-72h-518v72h170v612h-820z" />
    <glyph glyph-name="afii10032" unicode="&#x41e;" horiz-adv-x="1710" 
d="M309 686q0 -274 159 -448q160 -174 398 -174t398 174t159 448q0 274 -159 448q-160 173 -399 173q-239 1 -397 -173t-159 -448zM846 1393q320 0 503 -155q269 -228 269 -564q0 -104 -45 -224t-132 -228t-239 -176t-339 -69q-187 0 -337 68q-150 67 -236 175
q-176 221 -175 467q0 246 176 465q85 108 235 174t320 67z" />
    <glyph glyph-name="afii10033" unicode="&#x41f;" horiz-adv-x="1677" 
d="M1608 1370v-72h-170v-1226h170v-72h-518v72h170v1190h-820v-1190h170v-72h-518v72h170v1226h-170v72h1516z" />
    <glyph glyph-name="afii10034" unicode="&#x420;" horiz-adv-x="1239" 
d="M440 1284v-633q74 -25 184 -25q204 1 282 123q67 100 68 228q1 127 -91 217t-238 90h-205zM440 72h185v-72h-533v72h170v1228h-170v70h627q205 0 328 -104t123 -271t-113 -305q-57 -70 -161 -110q-208 -79 -456 -9v-499z" />
    <glyph glyph-name="afii10035" unicode="&#x421;" horiz-adv-x="1570" 
d="M1409 1370v-379h-106q-2 139 -110 227t-292 89q-264 0 -424 -170q-160 -171 -160 -443t165 -450t425 -178q299 0 502 184l59 -49q-199 -221 -563 -221q-193 0 -347 58t-246 158q-191 206 -191 484q0 322 220 518t558 195q246 0 385 -140l14 -36h11l-6 36v117h106z" />
    <glyph glyph-name="afii10036" unicode="&#x422;" horiz-adv-x="1306" 
d="M924 0h-518v72h169v1190h-421v-189h-103v297h1227v-297h-102v189h-422v-1190h170v-72z" />
    <glyph glyph-name="afii10037" unicode="&#x423;" horiz-adv-x="1370" 
d="M979 1298v72h432v-72h-154l-534 -1144q-82 -176 -242 -177q-100 0 -182 64l84 182q68 -92 149 -92q57 0 88 26q30 26 52 72l63 138l-569 931h-154v72h543v-72h-190l442 -723l6 -51h12l9 51l337 723h-192z" />
    <glyph glyph-name="afii10038" unicode="&#x424;" horiz-adv-x="1843" 
d="M1022 1184v-963q223 -4 376 133q152 137 152 349t-154 355q-155 142 -374 126zM315 686q0 -195 153 -332t376 -133v963q-128 6 -232 -36t-166 -115q-130 -152 -131 -347zM1192 -51h-518v71h170v115q-332 -8 -528 160t-196 384t153 395q75 87 204 141t293 55h74v98h-170
v72h518v-72h-170v-98h76q162 0 291 -54t203 -142q152 -178 153 -394q0 -215 -197 -384t-526 -161v-115h170v-71z" />
    <glyph glyph-name="afii10039" unicode="&#x425;" horiz-adv-x="1566" 
d="M971 1298v72h450v-72h-153l-416 -532l528 -694h146v-72h-555v72h194l-399 534l-14 27h-9l-16 -27l-397 -534h186v-72h-453v72h160l461 620l-473 606h-148v72h549v-72h-178l344 -450l10 -27h11l8 27l350 450h-186z" />
    <glyph glyph-name="afii10040" unicode="&#x426;" horiz-adv-x="1685" 
d="M1438 72h178v-461h-178v389h-1346v72h170v1226h-170v72h518v-72h-170v-1189h820v1189h-170v72h518v-72h-170v-1226z" />
    <glyph glyph-name="afii10041" unicode="&#x427;" horiz-adv-x="1486" 
d="M1069 1298h-168v72h516v-72h-170v-1226h170v-72h-534v72h186v510q-229 -33 -377 -33t-233 17q-86 17 -132 42t-73 65q-27 39 -33 73t-6 79v473h-170v72h516v-72h-168v-401q0 -117 29 -160q68 -102 326 -102q147 0 321 33v630z" />
    <glyph glyph-name="afii10042" unicode="&#x428;" horiz-adv-x="2256" 
d="M1669 1370h518v-72h-170v-1226h170v-72h-2095v72h170v1226h-170v72h518v-72h-170v-1189h611v1189h-170v72h518v-72h-170v-1189h610v1189h-170v72z" />
    <glyph glyph-name="afii10043" unicode="&#x429;" horiz-adv-x="2265" 
d="M1669 1370h518v-72h-170v-1226h178v-467h-178v395h-1925v72h170v1226h-170v72h518v-72h-170v-1189h611v1189h-170v72h518v-72h-170v-1189h610v1189h-170v72z" />
    <glyph glyph-name="afii10044" unicode="&#x42a;" horiz-adv-x="1511" 
d="M668 86h276q145 0 224 96t79 213t-92 203t-240 86h-247v-598zM489 1262h-339v-148h-99v256h799v-72h-182v-528h295q167 0 267 -45q50 -23 101 -59t81 -100q30 -65 30 -146q0 -176 -117 -298t-371 -122h-635v72h170v1190z" />
    <glyph glyph-name="afii10045" unicode="&#x42b;" horiz-adv-x="1918" 
d="M1331 72h170v1226h-170v72h518v-72h-170v-1226h170v-72h-518v72zM440 86h277q149 0 227 95t78 220t-99 205t-233 80h-250v-600zM262 72v1226h-170v72h533v-72h-185v-526h297q211 0 345 -91t134 -264t-116 -295q-117 -122 -373 -122h-635v72h170z" />
    <glyph glyph-name="afii10046" unicode="&#x42c;" horiz-adv-x="1288" 
d="M440 86h279q147 0 226 95t79 221t-99 205t-235 79h-250v-600zM262 72v1226h-170v72h533v-72h-185v-526h299q229 0 355 -99t125 -263q0 -164 -119 -287t-371 -123h-637v72h170z" />
    <glyph glyph-name="afii10047" unicode="&#x42d;" horiz-adv-x="1554" 
d="M610 659v86h652q4 215 -134 389t-360 173q-176 0 -324 -85t-163 -237h-95v356h95v-122l-5 -31h13l12 35q80 88 212 129t273 41q298 0 484 -207t186 -516q0 -251 -168 -459q-84 -104 -228 -169t-328 -65t-348 68q-163 68 -257 201l98 96q186 -279 494 -279q250 1 398 175
t145 421h-652z" />
    <glyph glyph-name="afii10048" unicode="&#x42e;" horiz-adv-x="2359" 
d="M1530 1307q-88 0 -178 -35t-176 -104q-86 -68 -140 -194t-55 -288q0 -162 54 -288q55 -126 141 -196t176 -104q90 -35 178 -35t178 35q220 86 311 300q53 126 54 288q0 162 -54 288q-91 216 -311 299q-90 34 -178 34zM440 770h346q35 264 239 443t505 180q184 0 332 -68
t232 -174q173 -216 173 -465q0 -295 -210 -502t-527 -207q-277 0 -498 166q-110 83 -176 223t-70 318h-346v-612h170v-72h-518v72h170v1226h-170v72h518v-72h-170v-528z" />
    <glyph glyph-name="afii10049" unicode="&#x42f;" horiz-adv-x="1345" 
d="M928 1284h-244q-141 0 -213 -97t-72 -203t83 -196t235 -90h211v586zM1106 1298v-1226h170v-72h-518v72h170v540h-170q-31 0 -48 -4q-32 -8 -66 -61q-11 -17 -43 -71t-64 -101l-127 -191q-193 -287 -398 -184v72h54q96 0 198 168l172 272q27 43 39 60q33 47 92 61l43 6v12
l-43 2q-154 11 -252 113t-98 230t78 237q43 61 136 99t224 38h621v-72h-170z" />
    <glyph glyph-name="afii10065" unicode="&#x430;" horiz-adv-x="1050" 
d="M486 549q-96 0 -173 -70t-77 -180t73 -173q74 -62 155 -62q80 0 148 39q68 40 99 116v166q-63 164 -225 164zM862 72h160v-72h-311v86q-49 -51 -131 -80t-162 -29q-162 1 -255 97t-93 225t99 232t274 103t268 -116v148q1 127 -63 180t-152 53q-150 0 -267 -104l-57 79
q131 94 320 95q106 0 179 -27q73 -26 109 -62t56 -105t23 -118t3 -139v-446z" />
    <glyph glyph-name="afii10066" unicode="&#x431;" horiz-adv-x="1173" 
d="M279 469q0 -320 224 -406q54 -20 104 -20q99 0 190 80q49 43 80 133t31 211t-28 207t-64 129q-84 100 -225 100q-142 1 -227 -111t-85 -323zM814 1188h-46q-251 0 -337 -35q-129 -49 -179 -133q-68 -115 -70 -299l13 -2q49 109 153 179t244 71q365 0 468 -311
q28 -85 27 -179q1 -203 -119 -353t-356 -149q-125 0 -220 38q-95 37 -149 93t-98 154t-46 236q-3 379 110 574q37 62 74 104t109 81q122 68 380 68h94q31 0 57 17q25 18 29 49h82q6 -57 -12 -99t-44 -62q-58 -42 -164 -42z" />
    <glyph glyph-name="afii10067" unicode="&#x432;" horiz-adv-x="1093" 
d="M387 72h197q244 0 243 186q0 142 -121 173q-85 22 -165 22h-154v-381zM387 518h164q92 0 157 48t64 132q0 57 -26 98q-48 78 -171 78h-188v-356zM70 874v72h553q193 0 258 -85q51 -67 51 -145q0 -79 -62 -134t-147 -72v-12q104 -4 191 -62t87 -174t-87 -189t-261 -73
h-583v72h155v802h-155z" />
    <glyph glyph-name="afii10068" unicode="&#x433;" horiz-adv-x="876" 
d="M848 653h-115v221h-346v-802h156v-72h-473v72h155v802h-155v72h778v-293z" />
    <glyph glyph-name="afii10069" unicode="&#x434;" 
d="M502 776l-264 -704h530l-246 704l-4 41h-12zM1077 72v-396h-133v324h-811v-324h-133v396h131l313 802h-161v72h338l325 -874h131z" />
    <glyph glyph-name="afii10070" unicode="&#x435;" horiz-adv-x="1079" 
d="M813 518q0 178 -78 282q-79 104 -199 105q-120 -1 -197 -113t-71 -274h545zM268 453q0 -112 50 -236q30 -72 102 -117t176 -45q190 0 344 154l53 -55q-69 -82 -183 -129t-226 -48q-201 0 -350 127q-148 127 -148 368t138 369t320 128t317 -122q67 -61 103 -163t29 -231
h-725z" />
    <glyph glyph-name="afii10072" unicode="&#x436;" horiz-adv-x="1720" 
d="M158 -23q-57 0 -129 23v72h55q78 0 188 149l271 365l-277 288h-155v72h432v-72h-158l397 -421v421h-155v72h467v-72h-156v-421l397 421h-155v72h432v-72h-156l-278 -288l272 -365q115 -150 188 -149h54v-72q-68 -23 -124 -23t-109 32q-52 32 -124 126l-260 344l-137 -127
v-280h156v-72h-467v72h155v280l-137 127l-260 -344q-68 -90 -119 -124t-108 -34z" />
    <glyph glyph-name="afii10073" unicode="&#x437;" horiz-adv-x="1003" 
d="M174 662v284h72v-72l-4 -28h12l10 28q94 94 259 94t246 -75q81 -76 81 -168q0 -193 -219 -223v-13q115 -3 197 -69t83 -178t-113 -190q-114 -77 -323 -77q-276 0 -389 201l88 74q27 -98 114 -154t203 -55q116 0 178 62q62 63 62 137q0 145 -102 184q-74 27 -170 29h-68
v65h64q102 0 169 48q66 48 66 138t-46 139q-46 50 -124 50q-130 -1 -204 -63t-70 -168h-72z" />
    <glyph glyph-name="afii10074" unicode="&#x438;" horiz-adv-x="1257" 
d="M870 874h-155v72h473v-72h-156v-802h156v-72h-473v72h155v598l-483 -510v-88h156v-72h-473v72h155v802h-155v72h473v-72h-156v-604l483 514v90z" />
    <glyph glyph-name="afii10075" unicode="&#x439;" horiz-adv-x="1257" 
d="M793 1376h135q-12 -110 -88 -192t-211 -82t-212 82t-87 192h135q0 -132 75 -175q36 -21 89 -21q134 1 158 141q6 28 6 55zM870 874h-155v72h473v-72h-156v-802h156v-72h-473v72h155v598l-483 -510v-88h156v-72h-473v72h155v802h-155v72h473v-72h-156v-604l483 514v90z
" />
    <glyph glyph-name="afii10076" unicode="&#x43a;" horiz-adv-x="1171" 
d="M647 874v72h416v-72h-156l-278 -288l272 -365q113 -150 189 -149h53v-72q-68 -23 -127 -23t-111 34q-51 34 -119 124l-258 344l-141 -145v-262h156v-72h-473v72h155v802h-155v72h456v-72h-139v-421l399 421h-139z" />
    <glyph glyph-name="afii10077" unicode="&#x43b;" horiz-adv-x="1069" 
d="M90 102q43 0 69 27t36 49t26 68l232 628h-162v72h340l313 -874h154v-72h-477v72h155l-254 696l-6 45h-10l-4 -45l-203 -565q-47 -133 -93 -179t-108 -46t-98 22v141q47 -39 90 -39z" />
    <glyph glyph-name="afii10078" unicode="&#x43c;" horiz-adv-x="1417" 
d="M1348 946v-72h-156v-802h156v-72h-474v72h156v755l8 45l-12 2l-14 -47l-324 -718h-41l-332 718l-14 47l-12 -2l2 -45v-755h155v-72h-376v72h155v802h-155v72h352l285 -596l8 -35h10l10 35l262 596h351z" />
    <glyph glyph-name="afii10079" unicode="&#x43d;" horiz-adv-x="1253" 
d="M387 453v-381h156v-72h-473v72h155v802h-155v72h473v-72h-156v-356h479v356h-155v72h473v-72h-156v-802h156v-72h-473v72h155v381h-479z" />
    <glyph glyph-name="afii10080" unicode="&#x43e;" horiz-adv-x="1153" 
d="M266 473q0 -250 104 -345q88 -81 217 -82t216 106q35 43 59 126q25 84 25 196t-25 195t-59 126q-35 43 -93 75t-125 31q-126 0 -215 -83q-104 -95 -104 -345zM86 473q0 205 134 350t353 145t357 -146t137 -349q0 -203 -137 -349q-136 -146 -356 -146t-354 144
q-134 146 -134 351z" />
    <glyph glyph-name="afii10081" unicode="&#x43f;" horiz-adv-x="1214" 
d="M385 874v-802h158v-72h-473v72h155v802h-155v72h1075v-72h-156v-802h156v-72h-473v72h155v802h-442z" />
    <glyph glyph-name="afii10082" unicode="&#x440;" horiz-adv-x="1216" 
d="M381 567v-188q0 -133 71 -223q70 -90 196 -90t211 101t85 306t-85 306t-211 101t-196 -90t-71 -223zM381 -358h172v-72h-490v72h156v1232h-156v72h318v-69l-8 -74l10 -4q66 170 301 170q196 0 318 -135q122 -134 122 -358t-122 -361t-316 -138q-236 0 -303 173l-10 -5
l8 -51v-452z" />
    <glyph glyph-name="afii10083" unicode="&#x441;" horiz-adv-x="1042" 
d="M905 946v-272h-92q-2 100 -79 155t-178 55t-184 -81q-44 -43 -72 -128t-28 -202q0 -191 90 -297t216 -106q186 0 323 112l55 -71q-174 -133 -384 -133t-344 142q-136 142 -136 352t129 353t328 144q141 0 248 -80l14 -33l10 4l-8 33v53h92z" />
    <glyph glyph-name="afii10084" unicode="&#x442;" horiz-adv-x="976" 
d="M252 0v72h156v802h-265v-212h-114v284h919v-284h-114v212h-265v-802h156v-72h-473z" />
    <glyph glyph-name="afii10085" unicode="&#x443;" horiz-adv-x="1120" 
d="M709 874v72h440v-72h-160l-422 -1040q-72 -176 -112 -231q-68 -90 -161 -90t-159 63l74 158q35 -74 86 -74q94 0 135 94l102 246l-389 874h-143v72h485v-72h-184l295 -657l12 -47h10l9 47l270 657h-188z" />
    <glyph glyph-name="afii10086" unicode="&#x444;" horiz-adv-x="1640" 
d="M691 790q-23 42 -71 74t-100 31q-52 0 -91 -16q-169 -71 -169 -406q0 -256 90 -348q72 -72 147 -73t123 31t71 74q52 91 52 317t-52 316zM897 473q0 -47 5 -128t23 -128q19 -47 44 -86q50 -78 158 -79t181 95q72 95 72 325t-72 327q-73 96 -181 96t-158 -79t-59 -154
q-9 -74 -11 -108t-2 -81zM901 1376v-506l-6 -39l12 -2q23 63 90 102q69 38 173 38t185 -49t120 -129q73 -150 73 -318q0 -169 -73 -317q-39 -80 -120 -129t-185 -49t-173 37q-68 38 -90 102l-12 -2l6 -39v-434h156v-72h-473v72h155v434l4 39l-10 2q-16 -53 -82 -97
q-65 -44 -175 -43q-292 0 -366 335q-17 79 -18 161q0 169 74 319q39 79 120 128q80 49 190 49t176 -43t81 -97l10 2l-4 39v435h-155v71h317z" />
    <glyph glyph-name="afii10087" unicode="&#x445;" horiz-adv-x="1136" 
d="M469 72v-72h-440v72h155l299 395l-299 407h-155v72h471v-72h-127l207 -280l213 280h-150v72h418v-72h-158l-268 -354l328 -448h145v-72h-483v72h149l-235 321l-244 -321h174z" />
    <glyph glyph-name="afii10088" unicode="&#x446;" horiz-adv-x="1236" 
d="M387 72h449v802h-156v72h473v-72h-156v-802h170v-396h-131v324h-966v72h155v802h-155v72h473v-72h-156v-802z" />
    <glyph glyph-name="afii10089" unicode="&#x447;" horiz-adv-x="1112" 
d="M725 874h-137v72h454v-72h-155v-802h155v-72h-489v72h172v329q-158 -45 -252 -45q-166 0 -231 61q-66 61 -66 181v276h-153v72h452v-72h-137v-274q0 -85 42 -124q80 -73 345 -9v407z" />
    <glyph glyph-name="afii10090" unicode="&#x448;" horiz-adv-x="1755" 
d="M70 0v72h155v802h-155v72h456v-72h-139v-802h410v802h-140v72h441v-72h-140v-802h410v802h-139v72h457v-72h-156v-802h156v-72h-1616z" />
    <glyph glyph-name="afii10091" unicode="&#x449;" horiz-adv-x="1767" 
d="M70 0v72h155v802h-155v72h456v-72h-139v-802h410v802h-140v72h441v-72h-140v-802h410v802h-139v72h457v-72h-156v-802h168v-396h-127v324h-1501z" />
    <glyph glyph-name="afii10092" unicode="&#x44a;" horiz-adv-x="1247" 
d="M604 72h213q227 0 227 198q0 182 -225 183h-215v-381zM442 72v802h-290v-212h-123v284h747v-72h-172v-356h227q271 0 350 -115q38 -55 38 -139q0 -264 -336 -264h-596v72h155z" />
    <glyph glyph-name="afii10093" unicode="&#x44b;" horiz-adv-x="1548" 
d="M1161 72v802h-155v72h473v-72h-156v-802h156v-72h-473v72h155zM387 72h213q225 0 225 198q0 182 -223 183h-215v-381zM225 72v802h-155v72h489v-72h-172v-356h227q385 0 385 -266q0 -128 -92 -190t-241 -62h-596v72h155z" />
    <glyph glyph-name="afii10094" unicode="&#x44c;" horiz-adv-x="1028" 
d="M387 72h213q225 0 225 198q0 49 -19 86q-50 97 -202 97h-217v-381zM225 72v802h-155v72h489v-72h-172v-356h227q385 0 385 -266q0 -128 -92 -190t-241 -62h-596v72h155z" />
    <glyph glyph-name="afii10095" unicode="&#x44d;" horiz-adv-x="1046" 
d="M168 655v291h68v-49l-7 -29l9 -4l18 25q84 80 233 80q215 0 340 -131t125 -364q0 -232 -128 -364t-337 -133q-260 0 -403 189l82 82q20 -39 52 -79t105 -82t159 -42q223 0 278 283q12 61 12 125h-373v65h373q-2 193 -80 288t-190 95t-187 -73q-74 -73 -81 -173h-68z" />
    <glyph glyph-name="afii10096" unicode="&#x44e;" horiz-adv-x="1722" 
d="M1037 883q-203 -73 -203 -390t165 -410q125 -69 253 -18q202 77 202 408q0 249 -94 339q-94 89 -215 89q-57 0 -108 -18zM387 518h266q27 184 153 318t342 133q216 1 352 -145t136 -350t-137 -350t-348 -146t-351 132q-140 134 -147 343h-266v-381h156v-72h-473v72h155
v802h-155v72h473v-72h-156v-356z" />
    <glyph glyph-name="afii10097" unicode="&#x44f;" horiz-adv-x="1101" 
d="M715 874h-197q-213 0 -213 -190q0 -166 254 -166h156v356zM877 874v-802h155v-72h-473v72h156v374h-164l-180 -321q-84 -147 -230 -148q-57 0 -112 23v72h45q55 0 99 44q55 55 114 156q58 101 73 115t31 30t55 32l-2 10q-29 -4 -45 -4q-109 0 -187 62t-79 153
q0 135 86 205q86 71 279 71h534v-72h-155z" />
    <glyph glyph-name="afii10071" unicode="&#x451;" 
d="M728 1157q-40 -1 -70 29t-29 70q0 40 27 71q28 31 72 31t73 -29t29 -73t-32 -72q-30 -28 -70 -27zM335 1157q-39 -1 -69 29t-30 70t27 71q28 31 72 31t73 -29q28 -29 28 -73t-30 -72t-71 -27zM266 518h545q0 178 -78 282q-77 104 -193 105t-195 -101t-79 -286zM991 453
h-725q0 -116 50 -236q30 -72 102 -117t176 -45q190 0 344 154l53 -55q-73 -82 -185 -129t-222 -48q-203 0 -351 127q-147 127 -147 368t137 369t331 128t316 -132t121 -294v-90z" />
    <glyph glyph-name="afii10099" unicode="&#x452;" horiz-adv-x="1046" 
d="M63 1368h318v-197h438v-71h-438v-238l-12 -61l12 -2l27 53q106 117 278 117q309 0 309 -373v-696q0 -225 -97 -313q-79 -72 -179 -72q-141 0 -211 92l92 69q41 -94 115 -94q119 0 119 232v782q0 141 -48 209t-149 67q-256 0 -256 -323v-477h156v-72h-474v72h156v1028
h-156v71h156v125h-156v72z" />
    <glyph glyph-name="afii10100" unicode="&#x453;" horiz-adv-x="876" 
d="M438 1434h244l-281 -293h-73zM848 653h-115v221h-346v-802h156v-72h-473v72h155v802h-155v72h778v-293z" />
    <glyph glyph-name="afii10101" unicode="&#x454;" horiz-adv-x="1046" 
d="M872 655h-67q-8 100 -81 173q-74 73 -186 73t-191 -96t-81 -287h375v-65h-375q0 -124 53 -255q65 -153 253 -153q98 0 178 60t122 143l82 -82q-143 -188 -403 -189q-209 1 -337 133t-128 364t125 364t327 131q202 0 265 -105l8 4l-6 29v49h67v-291z" />
    <glyph glyph-name="afii10102" unicode="&#x455;" horiz-adv-x="878" 
d="M745 694h-88q6 98 -67 151q-74 52 -168 52t-142 -51t-48 -102t14 -69q14 -19 22 -29t26 -20t32 -16q12 -6 38 -13t38 -11t74 -20q123 -31 216 -86q117 -70 117 -208q0 -139 -86 -217t-231 -78q-96 1 -156 21t-133 84l-15 29l-10 -5l6 -26v-80h-92v289h92q-4 -111 82 -175
t193 -65q107 0 157 51q50 50 52 108q0 58 -36 94t-77 52t-174 55q-134 40 -157 59t-51 42q-66 54 -67 180q-2 125 85 202t211 77t239 -82l12 -31l13 4l-9 29v57h88v-252z" />
    <glyph glyph-name="afii10103" unicode="&#x456;" horiz-adv-x="600" 
d="M205 1260q0 40 31 70q30 30 70 30t70 -31t30 -69t-27 -69q-27 -32 -73 -32t-74 31q-27 31 -27 70zM70 946h317v-874h156v-72h-473v72h155v802h-155v72z" />
    <glyph glyph-name="afii10104" unicode="&#x457;" horiz-adv-x="598" 
d="M464 1157q-42 1 -72 31t-30 68t27 70t74 32t73 -31t26 -71t-28 -70t-70 -29zM118 1358q42 0 70 -29t29 -73q0 -44 -31 -72q-32 -28 -68 -27t-68 27t-32 72t29 74t71 28zM70 946h317v-874h156v-72h-473v72h155v802h-155v72z" />
    <glyph glyph-name="afii10105" unicode="&#x458;" horiz-adv-x="593" 
d="M321 1358q45 0 73 -29t28 -73t-31 -72t-69 -27q-38 -1 -70 29q-31 30 -31 70t28 71t72 31zM55 946h346v-1046q0 -225 -97 -313q-79 -72 -179 -72q-141 0 -211 92l92 69q41 -94 115 -94q119 0 119 232v1060h-185v72z" />
    <glyph glyph-name="afii10106" unicode="&#x459;" horiz-adv-x="1452" 
d="M840 72h184q225 0 225 198q0 49 -19 86q-50 97 -202 97h-188v-381zM678 72v741h-8l-320 -610q-36 -66 -62 -106t-84 -80t-128 -40q-27 0 -76 23l18 141q47 -39 99 -39q94 0 170 144l342 628h-193v72h404v-428h198q385 0 385 -266q0 -128 -92 -190t-241 -62h-568v72h156z
" />
    <glyph glyph-name="afii10107" unicode="&#x45a;" horiz-adv-x="1652" 
d="M999 72h185q225 0 225 198q0 49 -19 86q-50 97 -202 97h-189v-381zM838 453h-451v-381h156v-72h-473v72h155v802h-155v72h473v-72h-156v-356h451v356h-156v72h489v-72h-172v-356h199q385 0 385 -266q0 -128 -92 -190t-242 -62h-567v72h156v381z" />
    <glyph glyph-name="afii10108" unicode="&#x45b;" horiz-adv-x="1202" 
d="M63 1368h318v-197h438v-71h-438v-238l-12 -61l12 -2l27 53q106 117 278 117q113 0 203 -64q49 -35 78 -107t28 -171v-555h156v-72h-473v72h156v510q0 216 -95 268q-41 23 -102 22q-256 0 -256 -323v-477h156v-72h-474v72h156v1028h-156v71h156v125h-156v72z" />
    <glyph glyph-name="afii10109" unicode="&#x45c;" horiz-adv-x="1171" 
d="M586 1434h243l-280 -293h-74zM647 874v72h416v-72h-156l-278 -288l272 -365q113 -150 189 -149h53v-72q-68 -23 -127 -23t-111 34q-51 34 -119 124l-258 344l-141 -145v-262h156v-72h-473v72h155v802h-155v72h456v-72h-139v-421l399 421h-139z" />
    <glyph glyph-name="afii10110" unicode="&#x45e;" horiz-adv-x="1120" 
d="M772 1376h135q-12 -110 -88 -192t-211 -82t-212 82t-87 192h135q0 -56 20 -105q37 -93 143 -92q107 1 136 69t29 128zM709 874v72h440v-72h-160l-422 -1040q-72 -176 -112 -231q-68 -90 -161 -90t-159 63l74 158q35 -74 86 -74q94 0 135 94l102 246l-389 874h-143v72h485
v-72h-184l295 -657l12 -47h10l9 47l270 657h-188z" />
    <glyph glyph-name="afii10193" unicode="&#x45f;" horiz-adv-x="1222" 
d="M387 72h449v802h-156v72h473v-72h-156v-802h156v-72h-477v-324h-129v324h-477v72h155v802h-155v72h473v-72h-156v-802z" />
    <glyph glyph-name="afii10050" unicode="&#x490;" horiz-adv-x="1159" 
d="M92 1370h934v184h111v-292h-697v-1190h170v-72h-518v72h170v1226h-170v72z" />
    <glyph glyph-name="afii10098" unicode="&#x491;" horiz-adv-x="876" 
d="M70 946h663v205h115v-277h-461v-802h156v-72h-473v72h155v802h-155v72z" />
    <glyph glyph-name="endash" unicode="&#x2013;" horiz-adv-x="2154" 
d="M403 567v121h1348v-121h-1348z" />
    <glyph glyph-name="emdash" unicode="&#x2014;" horiz-adv-x="2142" 
d="M63 526v105h2016v-105h-2016z" />
    <glyph glyph-name="quoteleft" unicode="&#x2018;" horiz-adv-x="604" 
d="M397 1405v-504h-184l117 504h67z" />
    <glyph glyph-name="quoteright" unicode="&#x2019;" horiz-adv-x="604" 
d="M207 901v504h184l-117 -504h-67z" />
    <glyph glyph-name="quotesinglbase" unicode="&#x201a;" horiz-adv-x="538" 
d="M174 -264v506h184l-116 -506h-68z" />
    <glyph glyph-name="quotedblleft" unicode="&#x201c;" horiz-adv-x="1005" 
d="M393 1370v-504h-186l119 504h67zM793 1370v-504h-187l119 504h68z" />
    <glyph glyph-name="quotedblright" unicode="&#x201d;" horiz-adv-x="1005" 
d="M606 866v504h187l-119 -504h-68zM207 866v504h186l-119 -504h-67z" />
    <glyph glyph-name="quotedblbase" unicode="&#x201e;" horiz-adv-x="1003" 
d="M606 -264v506h185l-117 -506h-68zM207 -264v506h184l-117 -506h-67z" />
    <glyph glyph-name="dagger" unicode="&#x2020;" horiz-adv-x="1089" 
d="M459 -430v1175h-373v173h373v452h172v-452h373v-173h-373v-1175h-172z" />
    <glyph glyph-name="bullet" unicode="&#x2022;" horiz-adv-x="1519" 
d="M530 643q0 94 67 162q67 67 163 67t163 -68t67 -161q0 -94 -68 -162q-66 -67 -162 -67t-163 68t-67 161z" />
    <glyph glyph-name="ellipsis" unicode="&#x2026;" horiz-adv-x="1630" 
d="M1260 100q0 53 25 91q26 38 74 38q48 1 75 -35q26 -36 26 -90t-26 -91q-26 -36 -73 -36q-46 0 -74 35q-27 35 -27 88zM715 100q0 53 25 91q26 38 74 38q48 1 75 -35t27 -90t-28 -91q-26 -36 -72 -36t-74 35q-27 35 -27 88zM271 -23q-45 0 -73 35t-28 88t26 91t74 38
q48 1 74 -35q27 -36 27 -90t-27 -91q-27 -36 -73 -36z" />
    <glyph glyph-name="perthousand" unicode="&#x2030;" horiz-adv-x="2428" 
d="M1825 152q0 -217 124 -255q54 -19 90 -7q37 12 69 36q74 53 73 211q0 158 -54 218q-54 61 -123 61t-124 -56t-55 -208zM1679 146q0 136 82 246q81 110 233 110t242 -102t90 -240q0 -139 -81 -249q-82 -110 -237 -110t-242 104t-87 241zM973 152q0 -217 124 -255
q54 -19 90 -7q37 12 69 36q74 53 73 211q0 158 -54 218q-54 61 -123 61t-124 -56t-55 -208zM827 146q0 136 82 246q81 110 233 110t242 -102t90 -240q0 -139 -81 -249q-82 -110 -237 -110t-242 104t-87 241zM1208 1393l66 -33l-914 -1612l-63 37zM426 1249q-178 0 -178 -280
q0 -127 54 -187t123 -61q69 0 124 56t55 208q0 264 -178 264zM430 635q-146 1 -238 103q-90 102 -90 240t82 248t242 109q88 0 155 -36t101 -92q65 -106 67 -234q1 -127 -86 -233t-233 -105z" />
    <glyph glyph-name="Euro" unicode="&#x20ac;" horiz-adv-x="1079" 
d="M700 1313q-162 0 -240 -124t-98 -366h529l-29 -73h-502q-2 -18 -2 -62v-65h451l-31 -74h-416q16 -240 102 -366t236 -126q98 0 168 47t86 148h41l-12 -156q-92 -117 -321 -116q-440 0 -488 569h-135l31 74h96q-2 16 -2 62t2 65h-127l31 73h102q27 287 139 428
q113 141 347 141t325 -110l12 -162h-41q-14 96 -82 144t-172 49z" />
    <glyph glyph-name="trademark" unicode="&#x2122;" horiz-adv-x="2191" 
d="M2105 1370v-57h-123v-633h123v-55h-372v55h122v596l5 35l-9 2l-12 -37l-254 -567h-31l-264 567l-10 37l-8 -2l2 -35l-2 -596h123v-55h-297v55h123v633h-123v57h278l223 -469l7 -29h10l6 27l207 471h276zM406 625v55h122v633h-209v-168h-90v225h725v-225h-90v168h-209
v-633h123v-55h-372z" />
    <glyph glyph-name="hyphenminus" horiz-adv-x="720" 
d="M119 598h483v-145h-483v145z" />
    <glyph glyph-name="quilsinglleft" horiz-adv-x="702" 
d="M166 508l235 387h136l-232 -387l232 -387h-136z" />
    <glyph glyph-name="quilsinglright" horiz-adv-x="702" 
d="M537 508l-236 -387h-135l231 387l-231 387h135z" />
    <glyph glyph-name="numero" horiz-adv-x="2179" 
d="M1614 716q0 -138 40 -224q40 -84 137 -84t137 84t40 226t-54 207t-125 65t-123 -68t-52 -206zM1483 694q0 178 100 265t216 87t208 -94q92 -96 92 -258q0 -92 -31 -162q-52 -118 -179 -163q-151 -54 -296 56q-49 37 -79 107t-31 162zM1511 80v108h572v-108h-572z
M1231 1298h-187v74h467v-74h-200v-1321l-979 1237v-1144h182v-70h-434v70h160v1228h-160v74h344l807 -1053v979z" />
  </font>
</defs>
</svg>
